<?xml version="1.0" encoding="UTF-8"?>
<!-- Generator: Adobe Illustrator 22.1.0, SVG Export Plug-In . SVG Version: 6.00 Build 0)  -->
<svg version="1.1" id="Layer_1" xmlns="http://www.w3.org/2000/svg" xmlns:xlink="http://www.w3.org/1999/xlink" x="0px" y="0px" viewBox="0 0 100 100" style="enable-background:new 0 0 100 100;" xml:space="preserve">
<style type="text/css">
	.st0{fill:url(#SVGID_1_);}
	.st1{fill:url(#SVGID_2_);}
</style>
<g>
	<g>
		

		
			<linearGradient id="SVGID_1_" gradientUnits="userSpaceOnUse" x1="50" y1="27.3623" x2="50" y2="127.3623" gradientTransform="matrix(1 0 0 -1 0 127.7245)">
			<stop offset="0" style="stop-color:#71D8EB"/>
			<stop offset="0.25" style="stop-color:#5AA9D0"/>
			<stop offset="0.5" style="stop-color:#156CFF"/>
			<stop offset="0.75" style="stop-color:#723998"/>
			<stop offset="1" style="stop-color:#EA098B"/>
		</linearGradient>
		<path class="st0" d="M50,100.1l-0.6-0.4c-0.1-0.1-7.5-5.8-14.9-12c-9.6-0.8-18.9-2-19-2l-0.7-0.1l-0.1-0.7c0-0.1-1.2-9.4-2-19    C6.5,58.4,0.8,51.1,0.7,51l-0.4-0.6l0.4-0.6c0.1-0.1,5.8-7.5,12-14.9c0.8-9.6,2-18.9,2-19l0.1-0.7l0.7-0.1c0.1,0,9.4-1.2,19-2    C42,6.9,49.3,1.2,49.4,1.1L50,0.7l0.6,0.4c0.1,0.1,7.5,5.8,14.9,12c9.6,0.8,18.9,2,19,2l0.7,0.1l0.1,0.7c0,0.1,1.2,9.4,2,19    c6.2,7.4,11.9,14.8,12,14.9l0.4,0.6L99.3,51c-0.1,0.1-5.8,7.5-12,14.9c-0.8,9.6-2,18.9-2,19l-0.1,0.7l-0.7,0.1    c-0.1,0-9.4,1.2-19,2c-7.4,6.2-14.8,11.9-14.9,12L50,100.1z M37.8,88c5.5,4.5,10.6,8.5,12.2,9.8c1.7-1.3,6.8-5.3,12.2-9.8    c-4.5,0.4-8.9,0.6-12.2,0.6C46.6,88.6,42.3,88.3,37.8,88z M35.3,85.9c5.3,0.5,10.7,0.8,14.7,0.8s9.4-0.4,14.7-0.8    c4.1-3.4,8.2-7,11-9.8s6.4-6.9,9.8-11c0.5-5.3,0.8-10.7,0.8-14.7s-0.4-9.4-0.8-14.7c-3.4-4.1-7-8.2-9.8-11s-6.9-6.4-11-9.8    C59.4,14.4,54,14.1,50,14.1s-9.4,0.4-14.7,0.8c-4.1,3.4-8.2,7-11,9.8s-6.4,6.9-9.8,11C14,41,13.7,46.4,13.7,50.4s0.4,9.4,0.8,14.7    c3.4,4.1,7,8.2,9.8,11S31.2,82.4,35.3,85.9z M16.5,83.9c2.1,0.3,8.5,1,15.6,1.7c-3.4-2.9-6.7-5.8-9.1-8.2    c-2.4-2.4-5.3-5.7-8.2-9.1C15.5,75.4,16.2,81.8,16.5,83.9z M85.2,68.3c-2.9,3.4-5.8,6.7-8.2,9.1c-2.4,2.4-5.6,5.3-9.1,8.2    c7.1-0.7,13.5-1.4,15.6-1.7C83.8,81.8,84.5,75.4,85.2,68.3z M87.6,38.2c0.4,4.5,0.6,8.9,0.6,12.2s-0.3,7.7-0.6,12.2    c4.5-5.5,8.5-10.6,9.8-12.2C96.1,48.7,92.1,43.6,87.6,38.2z M2.6,50.4c1.3,1.7,5.3,6.8,9.8,12.2c-0.4-4.5-0.6-8.9-0.6-12.2    s0.3-7.7,0.6-12.2C7.9,43.7,3.9,48.7,2.6,50.4z M16.5,16.9c-0.3,2.1-1,8.5-1.7,15.6c2.9-3.4,5.8-6.7,8.2-9.1s5.6-5.3,9.1-8.2    C25,15.9,18.6,16.6,16.5,16.9z M67.9,15.2c3.4,2.9,6.7,5.8,9.1,8.2s5.3,5.6,8.2,9.1c-0.7-7.1-1.4-13.5-1.7-15.6    C81.4,16.6,75,15.9,67.9,15.2z M50,12.2c3.4,0,7.7,0.3,12.2,0.6C56.8,8.3,51.7,4.3,50,3c-1.7,1.3-6.8,5.3-12.2,9.8    C42.3,12.5,46.6,12.2,50,12.2z"/>
	</g>
	
		<linearGradient id="SVGID_2_" gradientUnits="userSpaceOnUse" x1="50.1" y1="127.3623" x2="50.1" y2="-22.6377" gradientTransform="matrix(1 0 0 -1 0 127.7245)">
		<stop offset="0%" stop-color="#71D8EB">
                <animate attributeName="stop-color" values="#71D8EB; #5AA9D0; #156CFF; #723998; #EA098B; #71D8EB" dur="8s" repeatCount="indefinite"/>
            </stop>
		 <stop offset="25%" stop-color="#5AA9D0">
                <animate attributeName="stop-color" values="#5AA9D0; #156CFF; #723998; #EA098B; #71D8EB; #5AA9D0" dur="8s" repeatCount="indefinite"/>
            </stop>
			 <stop offset="50%" stop-color="#156CFF">
                <animate attributeName="stop-color" values="#156CFF; #723998; #EA098B; #71D8EB; #5AA9D0; #156CFF" dur="8s" repeatCount="indefinite"/>
            </stop>
			 <stop offset="75%" stop-color="#723998">
                <animate attributeName="stop-color" values="#723998; #EA098B; #71D8EB; #5AA9D0; #156CFF; #723998" dur="8s" repeatCount="indefinite"/>
            </stop>
            <stop offset="100%" stop-color="#EA098B">
                <animate attributeName="stop-color" values="#EA098B; #71D8EB; #5AA9D0; #156CFF; #723998; #EA098B" dur="8s" repeatCount="indefinite"/>
            </stop>
			
	</linearGradient>
	<path class="st1" d="M68.9,61.2c-1-16-13.6-34.3-18.9-40.4c-5.9,7.1-18.1,26.7-18.7,39.5c0,0.1,0,0.1,0,0.2c0,0.1,0,0.2,0,0.3v0.1   c0,9.8,7.4,18.3,17.1,19.1c11.2,1,20.5-7.8,20.5-18.7C68.9,61.3,68.9,61.3,68.9,61.2z M40.3,64.2c0-9.1,13-13.8,7.6-25   c0,0,8.7,5.3,8.7,14.8S48.3,64.3,50,75C50,75,40.3,74.5,40.3,64.2z M52.5,74.5c-0.6-3.8,0.2-6,2.4-9.1c1.4-2.1,2.6-3.8,3.3-5.7   c1,1.5,1.6,3.4,1.6,5.4C59.8,69.6,56.7,73.4,52.5,74.5z"/>
</g>
</svg>